<?xml version="1.0" encoding="UTF-8"?><svg id="Layer_2" xmlns="http://www.w3.org/2000/svg" width="205.18" height="290.89" viewBox="0 0 205.18 290.89"><defs><style>.cls-1{stroke-width:1.2px;}.cls-1,.cls-2,.cls-3,.cls-4,.cls-5,.cls-6{fill:#f7941d;stroke:#f29c1f;stroke-miterlimit:10;}.cls-7{fill:#f29c22;}.cls-2{stroke-width:1.03px;}.cls-3{stroke-width:1px;}.cls-5{stroke-width:.86px;}.cls-6{stroke-width:.75px;}</style></defs><g id="Layer_1-2"><path class="cls-4" d="M177.42,86.91s1.5-4.61,13.04-4.61c11.54,0,13.18,6.54,13.18,6.54,0-4.55-5.9-8.24-13.17-8.24-7.27,0-11.53,2.86-13.05,6.31Z"/><path class="cls-5" d="M181.81,96.04s1.39-5.71,11.42-5.74c10.03-.03,10.9,4.19,10.9,4.19,0-3.37-4.79-4.81-11.11-4.8s-10.13,3.33-11.21,6.35Z"/><g><path class="cls-4" d="M.5,95.47S12.39,4.4,101.93,4.4c89.54,0,102.59,91.73,102.59,91.73,0-54.17-45.74-95.63-102.19-95.63-56.45,0-101.83,40.8-101.83,94.97Z"/><path class="cls-2" d="M126.83,88.53s3.13-13.66,25.38-13.66,25.5,11.32,25.5,11.32c-.62-7.01-11.46-14.87-25.49-14.87-14.02,0-25.39,7.71-25.39,17.21Z"/><path class="cls-4" d="M74.97,85.36s3.2-13.81,25.92-13.81c22.72,0,25.95,13.81,25.95,13.81,0-9.61-11.61-17.41-25.93-17.41-14.32,0-25.93,7.79-25.93,17.41Z"/><path class="cls-4" d="M30.85,86.24s2.7-13.54,21.86-13.54c19.16,0,21.88,13.54,21.88,13.54,0-9.43-9.79-17.07-21.87-17.07-12.08,0-21.87,7.64-21.87,17.07Z"/><path class="cls-4" d="M22.09,94.92s1.75-4.9,13.83-4.93c12.08-.03,13.52,5.95,13.52,5.95-.21-3.61-5.88-7.23-13.5-7.21-7.61,.02-14.21,2.5-13.85,6.2Z"/><path class="cls-4" d="M.5,94.83s1.44-5.24,10.68-4.85c9.24,.39,10.98,5.61,10.98,5.61-.49-3.43-5.01-6.45-10.84-6.7-5.83-.24-10.41,2.6-10.82,5.94Z"/><line class="cls-4" x1=".42" y1="95.26" x2="106.45" y2="225.56"/><line class="cls-4" x1="21.85" y1="94.81" x2="106.29" y2="225.4"/><line class="cls-4" x1="48.69" y1="94.44" x2="106.51" y2="225.04"/><line class="cls-4" x1="77.39" y1="96.08" x2="106.8" y2="225.18"/><line class="cls-4" x1="30.27" y1="84.41" x2="106.61" y2="225.4"/><line class="cls-4" x1="112.9" y1="95.57" x2="106.54" y2="226.89"/><line class="cls-4" x1="148.69" y1="95.49" x2="106.69" y2="226.94"/><line class="cls-4" x1="182.22" y1="95.51" x2="106.65" y2="225.75"/><line class="cls-4" x1="74" y1="84.21" x2="109.87" y2="223.28"/><line class="cls-4" x1="126.89" y1="85.44" x2="106.8" y2="225.18"/><line class="cls-4" x1="177.68" y1="86.47" x2="107.19" y2="226.41"/><line class="cls-4" x1="204.78" y1="95.8" x2="106.8" y2="226.54"/><path class="cls-4" d="M1.85,86.25s1.8-7.94,14.56-7.94c12.77,0,14.58,7.94,14.58,7.94-1.04-5.44-6.52-10.01-14.57-10.01-8.05,0-14.57,4.48-14.57,10.01Z"/><path class="cls-4" d="M49.62,96.56s1.24-6.73,13.88-6.76c12.64-.03,13.97,7.28,13.97,7.28-.01-4.79-5.99-8.98-13.95-8.96-7.97,.02-13.91,3.65-13.9,8.44Z"/><path class="cls-4" d="M77.62,97.7s1.99-8.19,17.48-8.23c15.49-.04,17.73,7.52,17.73,7.52-.01-5.18-7.94-9.37-17.71-9.34-9.77,.03-17.99,5-17.51,10.05Z"/><path class="cls-4" d="M112.77,96.98s2.14-7.57,17.63-7.61c15.49-.04,17.73,7.52,17.73,7.52,1.03-4.6-7.94-9.37-17.71-9.34-9.77,.03-17.67,4.25-17.66,9.43Z"/><path class="cls-3" d="M148.13,96.88s2.06-7.23,16.94-7.3c14.83-.07,16.55,6.34,16.73,6.46,.72-4.45-7.33-8.23-16.71-8.2s-16.25,4.7-16.97,9.05Z"/><path class="cls-4" d="M31.37,84.6c-.39,.03-4.26-3.52-.25-22.03,4-18.45,8.88-20.19,8.88-20.19-3.18-.65-7.92,8.23-10.07,19.93-2.13,11.58-1.61,22.04,1.43,22.29Z"/><path class="cls-4" d="M74.97,85.6c.24,.39-2.15-4.55,1.29-24.82,3.31-19.53,7.88-21.48,7.88-21.48-2.33-.48-6.25,9.06-8.75,21.29-2.5,12.24-2.75,24.53-.42,25.01Z"/><path class="cls-4" d="M177.25,86.15s5.68-4.89-.28-22.8c-5.96-17.91-12.91-18.43-12.91-18.43,4.25-1.41,10.73,6.6,14.49,17.89,3.76,11.29,2.74,20.48-1.31,23.34Z"/><path class="cls-4" d="M127.73,83.98s2.97-.25,2.45-20.05c-.52-19.8-5.14-22.5-5.14-22.5,3.16-.08,5.99,9.97,6.32,22.46,.33,12.48-.47,20.01-3.63,20.09Z"/><line class="cls-1" x1="106.93" y1="224.24" x2="106.93" y2="244.77"/><line class="cls-6" x1="101.19" y1="253.94" x2="107.16" y2="244.02"/><line class="cls-6" x1="111.77" y1="253.73" x2="106.94" y2="244.34"/><g><path class="cls-7" d="M105.59,276.2v5.11l2.42,6.99s-1.07,3.9-2.42,2.15-3.36-5.78-3.49-6.58,.13-7.12,.4-7.79,.27-11.42,.27-11.42c0,0-4.97-2.15-5.24-3.63s.13-2.82,.67-3.9,1.75-3.36,2.42-3.76,2.15-1.34,1.75,0-.67,2.55-1.21,3.9-.81,.94-.67,2.02-.13,.54,1.21,1.48,6.31,1.75,7.25,1.07,4.03-1.75,4.43-2.55-2.96-4.84-3.09-5.64,.67-2.02,1.48-1.07,3.36,4.16,3.63,5.37,1.48,1.21-.4,2.82-3.63,2.69-4.43,3.49-1.07,9.27-.94,10.21,.4,4.57,.4,5.24,4.43,3.22,5.11,4.16,1.21,2.69-.4,2.42-2.96-.67-4.43-1.75-2.55-2.15-2.69-2.55-2.02-5.78-2.02-5.78Z"/><ellipse class="cls-7" cx="105.86" cy="257.66" rx="3.69" ry="3.49"/></g></g></g></svg>